<svg width="700" height="436" fill="none" xmlns="http://www.w3.org/2000/svg"><path opacity=".5" d="m480.451 111.728-5.617-5.611h11.234l-5.617 5.611zm5.617 7.251h-11.234l5.617-5.611 5.617 5.611zm-14-14.013 7.576 7.568-7.576 7.567h16.794l-7.576-7.567 7.576-7.568h-16.794zm-96.672 6.762-5.617-5.611h11.234l-5.617 5.611zm5.617 7.251h-11.234l5.617-5.611 5.617 5.611zm-13.999-14.013 7.576 7.568-7.576 7.567h16.794l-7.576-7.567 7.576-7.568h-16.794zm323.632 6.762-5.617-5.611h11.234l-5.617 5.611zm5.617 7.251h-11.234l5.617-5.611 5.617 5.611zm-13.999-14.013 7.576 7.568-7.576 7.567h16.794l-7.576-7.567 7.576-7.568h-16.794zm-96.672 6.762-5.617-5.611h11.234l-5.617 5.611zm5.617 7.251h-11.234l5.617-5.611 5.617 5.611zm-14.028-14.013 7.575 7.568-7.575 7.567h16.793l-7.576-7.567 7.576-7.568h-16.793zm-517.006 6.762-5.617-5.611h11.234l-5.617 5.611zm5.617 7.251H54.558l5.617-5.611 5.617 5.611zm-14.028-14.013 7.576 7.568-7.576 7.567h16.794l-7.576-7.567 7.576-7.568H51.764zm218.578 6.762-5.617-5.611h11.234l-5.617 5.611zm5.617 7.251h-11.234l5.617-5.611 5.617 5.611zm-14.028-14.013 7.575 7.568-7.575 7.567h16.793l-7.576-7.567 7.576-7.568h-16.793zm-96.672 6.762-5.618-5.611h11.235l-5.617 5.611zm5.617 7.251h-11.235l5.618-5.611 5.617 5.611zm-14.029-14.013 7.576 7.568-7.576 7.567h16.794l-7.576-7.567 7.576-7.568h-16.794zM480.451 6.762l-5.617-5.611h11.234l-5.617 5.61zm5.617 7.25h-11.234l5.617-5.61 5.617 5.61zm-14-13.983 7.576 7.567-7.576 7.568h16.794l-7.576-7.568L488.862.03h-16.794zM375.396 6.79l-5.617-5.611h11.234l-5.617 5.61zm5.617 7.25h-11.234l5.617-5.61 5.617 5.61zM367.014.058l7.576 7.567-7.576 7.568h16.794l-7.576-7.568 7.576-7.567h-16.794zm323.632 6.761-5.617-5.61h11.234l-5.617 5.61zm5.617 7.251h-11.234l5.617-5.61 5.617 5.61zM682.264.086l7.576 7.568-7.576 7.567h16.794l-7.576-7.567 7.576-7.568h-16.794zm-96.672 6.762-5.617-5.61h11.234l-5.617 5.61zm5.617 7.251h-11.234l5.617-5.61 5.617 5.61zM577.181.115l7.575 7.568-7.575 7.567h16.793l-7.576-7.567 7.576-7.568h-16.793zM60.118 6.762 54.5 1.15h11.234l-5.617 5.61zm5.617 7.25H54.5l5.617-5.61 5.617 5.61zM51.706 0l7.576 7.567-7.576 7.568H68.5l-7.576-7.568L68.5 0H51.706zm218.578 6.762-5.617-5.611h11.234l-5.617 5.61zm5.617 7.25h-11.234l5.617-5.61 5.617 5.61zM261.873.03l7.576 7.567-7.576 7.568h16.794l-7.576-7.568L278.667.03h-16.794zM165.201 6.79l-5.617-5.611h11.234l-5.617 5.61zm5.617 7.25h-11.234l5.617-5.61 5.617 5.61zM156.79.058l7.576 7.567-7.576 7.568h16.793l-7.576-7.568 7.576-7.567H156.79zm323.632 216.694-5.617-5.611h11.234l-5.617 5.611zm5.617 7.251h-11.234l5.617-5.611 5.617 5.611zM472.04 209.99l7.576 7.568-7.576 7.567h16.793l-7.576-7.567 7.576-7.568H472.04zm-96.672 6.762-5.618-5.611h11.235l-5.617 5.611zm5.617 7.251H369.75l5.618-5.611 5.617 5.611zm-14-14.013 7.576 7.568-7.576 7.567h16.794l-7.576-7.567 7.576-7.568h-16.794zm323.633 6.762L685 211.141h11.235l-5.617 5.611zm5.617 7.251H685l5.618-5.611 5.617 5.611zm-14-14.013 7.576 7.568-7.576 7.567h16.794l-7.576-7.567 7.576-7.568h-16.794zm-96.672 6.762-5.617-5.611h11.234l-5.617 5.611zm5.617 7.251h-11.234l5.617-5.611 5.617 5.611zm-14.028-14.013 7.576 7.568-7.576 7.567h16.793l-7.575-7.567 7.575-7.568h-16.793zm-516.977 6.762-5.617-5.611h11.234l-5.617 5.611zm5.617 7.251H54.558l5.617-5.611 5.617 5.611zM51.764 209.99l7.576 7.568-7.576 7.567h16.794l-7.576-7.567 7.576-7.568H51.764zm113.495 6.762-5.618-5.611h11.235l-5.617 5.611zm5.617 7.251h-11.235l5.618-5.611 5.617 5.611zm-14.029-14.013 7.576 7.568-7.576 7.567h16.794l-7.576-7.567 7.576-7.568h-16.794zm113.495 6.762-5.617-5.611h11.234l-5.617 5.611zm5.617 7.251h-11.234l5.617-5.611 5.617 5.611zm-14.028-14.013 7.575 7.568-7.575 7.567h16.793l-7.576-7.567 7.576-7.568h-16.793zM480.48 321.718l-5.617-5.611h11.234l-5.617 5.611zm5.617 7.251h-11.234l5.617-5.611 5.617 5.611zm-14-14.013 7.576 7.568-7.576 7.567h16.794l-7.576-7.567 7.576-7.568h-16.794zm-96.672 6.762-5.617-5.611h11.234l-5.617 5.611zm5.617 7.251h-11.234l5.617-5.611 5.617 5.611zm-13.999-14.013 7.576 7.568-7.576 7.567h16.793l-7.575-7.567 7.575-7.568h-16.793zm323.632 6.762-5.617-5.611h11.234l-5.617 5.611zm5.617 7.251h-11.234l5.617-5.611 5.617 5.611zm-13.999-14.013 7.576 7.568-7.576 7.567h16.793l-7.576-7.567 7.576-7.568h-16.793zm-96.672 6.762-5.617-5.611h11.234l-5.617 5.611zm5.617 7.251h-11.234l5.617-5.611 5.617 5.611zm-14.029-14.013 7.576 7.568-7.576 7.567h16.794l-7.576-7.567 7.576-7.568h-16.794zm-411.893 6.762-5.617-5.611h11.234l-5.617 5.611zm5.617 7.251h-11.234l5.617-5.611 5.617 5.611zm-14.028-14.013 7.576 7.568-7.576 7.567h16.794l-7.576-7.567 7.576-7.568h-16.794zm-96.672 6.762-5.617-5.611H65.85l-5.617 5.611zm5.617 7.251H54.616l5.617-5.611 5.617 5.611zm-14.028-14.013 7.575 7.568-7.575 7.567h16.793l-7.576-7.567 7.576-7.568H51.822zm218.577 6.762-5.617-5.611h11.235l-5.618 5.611zm5.618 7.251h-11.235l5.617-5.611 5.618 5.611zm-14.029-14.013 7.576 7.568-7.576 7.567h16.794l-7.576-7.567 7.576-7.568h-16.794zm218.578 111.728-5.617-5.61h11.234l-5.617 5.61zm5.617 7.251h-11.234l5.617-5.611 5.617 5.611zm-13.999-13.984 7.576 7.568-7.576 7.567h16.793l-7.576-7.567 7.576-7.568h-16.793zm-96.672 6.762-5.618-5.611h11.235l-5.617 5.611zm5.617 7.251h-11.235l5.618-5.611 5.617 5.611zm-14-13.984 7.576 7.568-7.576 7.567h16.794l-7.576-7.567 7.576-7.568h-16.794zm323.633 6.762-5.618-5.611h11.235l-5.617 5.611zm5.617 7.251h-11.235l5.618-5.611 5.617 5.611zm-14-13.984 7.576 7.567-7.576 7.568h16.794l-7.576-7.568 7.576-7.567h-16.794zm-96.672 6.762-5.617-5.611h11.234l-5.617 5.611zm5.617 7.251H580.09l5.617-5.611 5.617 5.611zm-14.028-13.984 7.576 7.567-7.576 7.568h16.794l-7.576-7.568 7.576-7.567h-16.794zM165.374 426.8l-5.617-5.611h11.234l-5.617 5.611zm5.617 7.25h-11.234l5.617-5.61 5.617 5.61zm-14.029-13.983 7.576 7.567-7.576 7.567h16.794l-7.576-7.567 7.576-7.567h-16.794zm-96.672 6.761-5.617-5.611h11.234l-5.617 5.611zm5.617 7.251H54.673l5.617-5.611 5.617 5.611zM51.88 420.095l7.576 7.568-7.576 7.567h16.794l-7.576-7.567 7.576-7.568H51.879zm218.578 6.762-5.617-5.611h11.234l-5.617 5.611zm5.617 7.251H264.84l5.617-5.611 5.617 5.611zm-14.028-13.984 7.576 7.568-7.576 7.567h16.794l-7.576-7.567 7.576-7.568h-16.794zm263.515-37.319h15.18v-15.164h-15.18v15.164zm-105.084 0h15.181v-15.164h-15.181v15.164zm210.167 0h15.181v-15.164h-15.181v15.164zm-525.388 0h15.181v-15.164h-15.181v15.164zm-105.083 0h15.18v-15.164H0v15.164h.173zm315.25 0h15.18v-15.164h-15.18v15.164zm-105.084 0h15.181v-15.164h-15.181v15.164zM525.388 67.647h15.18V52.483h-15.18v15.164zm-105.083 0h15.18V52.483h-15.18v15.164zm210.166 0h15.181V52.483h-15.181v15.164zm-525.388 0h15.181V52.483h-15.181v15.164zM0 67.647h15.18V52.483H0v15.164zm315.25 0h15.181V52.483H315.25v15.164zm-105.083 0h15.18V52.483h-15.18v15.164zm315.221 209.932h15.18v-15.163h-15.18v15.163zm-105.083 0h15.18v-15.163h-15.18v15.163zm210.166 0h15.181v-15.163h-15.181v15.163zm-525.388 0h15.181v-15.163h-15.181v15.163zM0 277.579h15.18v-15.163H0v15.163zm315.25 0h15.181v-15.163H315.25v15.163zm-105.083 0h15.18v-15.163h-15.18v15.163zm315.221-104.966h15.18v-15.164h-15.18v15.164zm-105.083 0h15.18v-15.164h-15.18v15.164zm210.166 0h15.181v-15.164h-15.181v15.164zm-525.388 0h15.181v-15.164h-15.181v15.164zM0 172.613h15.18v-15.164H0v15.164zm315.25 0h15.181v-15.164H315.25v15.164zm-105.083 0h15.18v-15.164h-15.18v15.164z" fill="#0E2244"/></svg>